<?xml version="1.0" encoding="UTF-8" standalone="no"?>
<svg
   xmlns:dc="http://purl.org/dc/elements/1.1/"
   xmlns:cc="http://creativecommons.org/ns#"
   xmlns:rdf="http://www.w3.org/1999/02/22-rdf-syntax-ns#"
   xmlns:svg="http://www.w3.org/2000/svg"
   xmlns="http://www.w3.org/2000/svg"
   xmlns:sodipodi="http://sodipodi.sourceforge.net/DTD/sodipodi-0.dtd"
   xmlns:inkscape="http://www.inkscape.org/namespaces/inkscape"
   version="1.0"
   width="451.25"
   height="315.5"
   id="svg2"
   inkscape:version="0.48.1 r9760"
   sodipodi:docname="SetDifferenceA.svg">
  <metadata
     id="metadata20">
    <rdf:RDF>
      <cc:Work
         rdf:about="">
        <dc:format>image/svg+xml</dc:format>
        <dc:type
           rdf:resource="http://purl.org/dc/dcmitype/StillImage" />
        <dc:title />
      </cc:Work>
    </rdf:RDF>
  </metadata>
  <defs
     id="defs18">
    <inkscape:perspective
       sodipodi:type="inkscape:persp3d"
       inkscape:vp_x="0 : 286 : 1"
       inkscape:vp_y="0 : 1000 : 0"
       inkscape:vp_z="620 : 286 : 1"
       inkscape:persp3d-origin="310 : 190.66667 : 1"
       id="perspective22" />
    <inkscape:perspective
       id="perspective3232"
       inkscape:persp3d-origin="0.5 : 0.33333333 : 1"
       inkscape:vp_z="1 : 0.5 : 1"
       inkscape:vp_y="0 : 1000 : 0"
       inkscape:vp_x="0 : 0.5 : 1"
       sodipodi:type="inkscape:persp3d" />
    <inkscape:perspective
       id="perspective3222"
       inkscape:persp3d-origin="0.5 : 0.33333333 : 1"
       inkscape:vp_z="1 : 0.5 : 1"
       inkscape:vp_y="0 : 1000 : 0"
       inkscape:vp_x="0 : 0.5 : 1"
       sodipodi:type="inkscape:persp3d" />
    <inkscape:perspective
       id="perspective3222-2"
       inkscape:persp3d-origin="0.5 : 0.33333333 : 1"
       inkscape:vp_z="1 : 0.5 : 1"
       inkscape:vp_y="0 : 1000 : 0"
       inkscape:vp_x="0 : 0.5 : 1"
       sodipodi:type="inkscape:persp3d" />
    <inkscape:perspective
       id="perspective3222-5"
       inkscape:persp3d-origin="0.5 : 0.33333333 : 1"
       inkscape:vp_z="1 : 0.5 : 1"
       inkscape:vp_y="0 : 1000 : 0"
       inkscape:vp_x="0 : 0.5 : 1"
       sodipodi:type="inkscape:persp3d" />
    <inkscape:perspective
       id="perspective3276"
       inkscape:persp3d-origin="0.5 : 0.33333333 : 1"
       inkscape:vp_z="1 : 0.5 : 1"
       inkscape:vp_y="0 : 1000 : 0"
       inkscape:vp_x="0 : 0.5 : 1"
       sodipodi:type="inkscape:persp3d" />
    <inkscape:perspective
       id="perspective3276-5"
       inkscape:persp3d-origin="0.5 : 0.33333333 : 1"
       inkscape:vp_z="1 : 0.5 : 1"
       inkscape:vp_y="0 : 1000 : 0"
       inkscape:vp_x="0 : 0.5 : 1"
       sodipodi:type="inkscape:persp3d" />
    <inkscape:perspective
       id="perspective3276-8"
       inkscape:persp3d-origin="0.5 : 0.33333333 : 1"
       inkscape:vp_z="1 : 0.5 : 1"
       inkscape:vp_y="0 : 1000 : 0"
       inkscape:vp_x="0 : 0.5 : 1"
       sodipodi:type="inkscape:persp3d" />
    <inkscape:perspective
       id="perspective4113"
       inkscape:persp3d-origin="0.5 : 0.33333333 : 1"
       inkscape:vp_z="1 : 0.5 : 1"
       inkscape:vp_y="0 : 1000 : 0"
       inkscape:vp_x="0 : 0.5 : 1"
       sodipodi:type="inkscape:persp3d" />
    <inkscape:perspective
       id="perspective4216"
       inkscape:persp3d-origin="0.5 : 0.33333333 : 1"
       inkscape:vp_z="1 : 0.5 : 1"
       inkscape:vp_y="0 : 1000 : 0"
       inkscape:vp_x="0 : 0.5 : 1"
       sodipodi:type="inkscape:persp3d" />
    <inkscape:perspective
       id="perspective4241"
       inkscape:persp3d-origin="0.5 : 0.33333333 : 1"
       inkscape:vp_z="1 : 0.5 : 1"
       inkscape:vp_y="0 : 1000 : 0"
       inkscape:vp_x="0 : 0.5 : 1"
       sodipodi:type="inkscape:persp3d" />
    <inkscape:perspective
       id="perspective4266"
       inkscape:persp3d-origin="0.5 : 0.33333333 : 1"
       inkscape:vp_z="1 : 0.5 : 1"
       inkscape:vp_y="0 : 1000 : 0"
       inkscape:vp_x="0 : 0.5 : 1"
       sodipodi:type="inkscape:persp3d" />
    <inkscape:perspective
       id="perspective4266-5"
       inkscape:persp3d-origin="0.5 : 0.33333333 : 1"
       inkscape:vp_z="1 : 0.5 : 1"
       inkscape:vp_y="0 : 1000 : 0"
       inkscape:vp_x="0 : 0.5 : 1"
       sodipodi:type="inkscape:persp3d" />
    <inkscape:perspective
       id="perspective4266-8"
       inkscape:persp3d-origin="0.5 : 0.33333333 : 1"
       inkscape:vp_z="1 : 0.5 : 1"
       inkscape:vp_y="0 : 1000 : 0"
       inkscape:vp_x="0 : 0.5 : 1"
       sodipodi:type="inkscape:persp3d" />
    <inkscape:perspective
       id="perspective4266-3"
       inkscape:persp3d-origin="0.5 : 0.33333333 : 1"
       inkscape:vp_z="1 : 0.5 : 1"
       inkscape:vp_y="0 : 1000 : 0"
       inkscape:vp_x="0 : 0.5 : 1"
       sodipodi:type="inkscape:persp3d" />
    <inkscape:perspective
       id="perspective4266-6"
       inkscape:persp3d-origin="0.5 : 0.33333333 : 1"
       inkscape:vp_z="1 : 0.5 : 1"
       inkscape:vp_y="0 : 1000 : 0"
       inkscape:vp_x="0 : 0.5 : 1"
       sodipodi:type="inkscape:persp3d" />
    <inkscape:perspective
       id="perspective4266-87"
       inkscape:persp3d-origin="0.5 : 0.33333333 : 1"
       inkscape:vp_z="1 : 0.5 : 1"
       inkscape:vp_y="0 : 1000 : 0"
       inkscape:vp_x="0 : 0.5 : 1"
       sodipodi:type="inkscape:persp3d" />
    <inkscape:perspective
       id="perspective4449"
       inkscape:persp3d-origin="0.5 : 0.33333333 : 1"
       inkscape:vp_z="1 : 0.5 : 1"
       inkscape:vp_y="0 : 1000 : 0"
       inkscape:vp_x="0 : 0.5 : 1"
       sodipodi:type="inkscape:persp3d" />
    <inkscape:perspective
       id="perspective4520"
       inkscape:persp3d-origin="0.5 : 0.33333333 : 1"
       inkscape:vp_z="1 : 0.5 : 1"
       inkscape:vp_y="0 : 1000 : 0"
       inkscape:vp_x="0 : 0.5 : 1"
       sodipodi:type="inkscape:persp3d" />
    <inkscape:perspective
       id="perspective2937"
       inkscape:persp3d-origin="0.5 : 0.33333333 : 1"
       inkscape:vp_z="1 : 0.5 : 1"
       inkscape:vp_y="0 : 1000 : 0"
       inkscape:vp_x="0 : 0.5 : 1"
       sodipodi:type="inkscape:persp3d" />
    <inkscape:perspective
       id="perspective3731"
       inkscape:persp3d-origin="0.5 : 0.33333333 : 1"
       inkscape:vp_z="1 : 0.5 : 1"
       inkscape:vp_y="0 : 1000 : 0"
       inkscape:vp_x="0 : 0.5 : 1"
       sodipodi:type="inkscape:persp3d" />
    <inkscape:perspective
       id="perspective3232-4"
       inkscape:persp3d-origin="0.5 : 0.33333333 : 1"
       inkscape:vp_z="1 : 0.5 : 1"
       inkscape:vp_y="0 : 1000 : 0"
       inkscape:vp_x="0 : 0.5 : 1"
       sodipodi:type="inkscape:persp3d" />
    <inkscape:perspective
       id="perspective4147"
       inkscape:persp3d-origin="0.5 : 0.33333333 : 1"
       inkscape:vp_z="1 : 0.5 : 1"
       inkscape:vp_y="0 : 1000 : 0"
       inkscape:vp_x="0 : 0.5 : 1"
       sodipodi:type="inkscape:persp3d" />
    <inkscape:perspective
       id="perspective3039"
       inkscape:persp3d-origin="0.5 : 0.33333333 : 1"
       inkscape:vp_z="1 : 0.5 : 1"
       inkscape:vp_y="0 : 1000 : 0"
       inkscape:vp_x="0 : 0.5 : 1"
       sodipodi:type="inkscape:persp3d" />
  </defs>
  <sodipodi:namedview
     pagecolor="#ffffff"
     bordercolor="#666666"
     borderopacity="1"
     objecttolerance="10"
     gridtolerance="10"
     guidetolerance="10"
     inkscape:pageopacity="0"
     inkscape:pageshadow="2"
     inkscape:window-width="1600"
     inkscape:window-height="1098"
     id="namedview16"
     showgrid="false"
     inkscape:zoom="1.3058824"
     inkscape:cx="133.31266"
     inkscape:cy="154.37266"
     inkscape:window-x="0"
     inkscape:window-y="36"
     inkscape:window-maximized="1"
     inkscape:current-layer="svg2"
     fit-margin-top="0"
     fit-margin-left="0"
     fit-margin-right="0"
     fit-margin-bottom="0" />
  <rect
     style="fill:#4682b4;fill-opacity:1;stroke:#000000;stroke-width:3.73413658;stroke-linecap:round;stroke-linejoin:round;stroke-miterlimit:4;stroke-opacity:1;stroke-dasharray:none"
     id="rect3012"
     width="427.4863"
     height="291.75674"
     x="11.881851"
     y="11.871628" />
  <path
     style="color:#000000;fill:#ffffff;fill-opacity:1;stroke:#000000;stroke-width:3.75;stroke-linecap:round;stroke-linejoin:round;stroke-miterlimit:4;stroke-opacity:1;stroke-dasharray:none;stroke-dashoffset:0.6;marker:none;visibility:visible;display:inline;overflow:visible;enable-background:accumulate"
     d="M 312.26942,166.282 C 311.35462,217.31725 255.6522,257.82662 187.8545,256.76222 120.05686,255.69779 65.837576,213.46266 66.752366,162.42739 67.667156,111.39213 123.36959,70.882752 191.16726,71.947172 258.96494,73.011592 313.18421,115.24672 312.26942,166.282 z"
     id="path4386-15"
     inkscape:connector-curvature="0" />
  <g
     style="font-size:42.73818588px;font-style:italic;font-variant:normal;font-weight:normal;font-stretch:normal;fill:#000000;fill-opacity:1;stroke:none;font-family:Gentium;-inkscape-font-specification:Andale Mono Italic"
     id="text4135-0"
     transform="translate(85.584388,61.426803)">
    <path
       d="m 29.286373,56.367504 6.865656,0 -1.961616,-11.35233 -4.90404,11.35233 m 13.710444,11.164517 -8.034279,0 0.08347,-0.897335 c 0.987749,-0.06956 1.697269,-0.208682 2.128562,-0.417365 0.431261,-0.222594 0.605163,-0.556485 0.521707,-1.001677 l -1.210359,-6.949129 -8.01341,0 -2.98416,6.949129 c -0.194775,0.431279 -0.09043,0.744303 0.313024,0.939072 0.417359,0.180859 1.16166,0.340849 2.232903,0.47997 l -0.12521,0.897335 -7.909068,0 0.125209,-0.897335 c 0.876467,-0.166945 1.579031,-0.340847 2.107694,-0.521707 0.52866,-0.194769 0.88342,-0.49388 1.064281,-0.897335 l 10.16284,-23.330709 c 0.180845,-0.16692 0.396484,-0.333866 0.646916,-0.500838 0.250405,-0.180832 0.50778,-0.347777 0.772125,-0.500838 0.264317,-0.166919 0.514736,-0.319953 0.751258,-0.459101 0.250403,-0.153007 0.466042,-0.278216 0.646915,-0.375629 l 4.507544,25.167115 c 0.0278,0.194773 0.0765,0.368675 0.146077,0.521707 0.08345,0.139123 0.208662,0.271288 0.375629,0.396496 0.166925,0.111299 0.38952,0.208684 0.667784,0.292156 0.292134,0.08347 0.660806,0.153035 1.106018,0.208683 l -0.08347,0.897335"
       id="path3029"
       inkscape:connector-curvature="0" />
  </g>
  <g
     style="font-size:48.09857178px;font-style:normal;font-weight:normal;line-height:125%;letter-spacing:0px;word-spacing:0px;fill:#000000;fill-opacity:1;stroke:none;font-family:Sans"
     id="text3009">
    <path
       d="m 420.8269,26.242447 c -0.88778,0.197305 -1.57826,0.415721 -2.07143,0.655249 -0.49322,0.239579 -0.75391,0.457995 -0.78207,0.655249 l -1.90234,13.591135 c -0.25367,1.84598 -0.68345,3.487624 -1.28936,4.924937 -0.59186,1.423234 -1.34575,2.621 -2.26167,3.593302 -0.90186,0.972306 -1.94462,1.712103 -3.12828,2.219392 -1.1696,0.493198 -2.45192,0.739796 -3.84695,0.739797 -1.1555,-10e-7 -2.2194,-0.176143 -3.1917,-0.528427 -0.95822,-0.352284 -1.78256,-0.866619 -2.47303,-1.543006 -0.69049,-0.676384 -1.22596,-1.507774 -1.60642,-2.494174 -0.38047,-1.000483 -0.57071,-2.148929 -0.5707,-3.445342 -10e-6,-0.366368 0.0141,-0.75388 0.0423,-1.162538 0.0282,-0.408641 0.0775,-0.831382 0.14796,-1.268225 l 2.07143,-14.626851 c 0.0282,-0.169072 -0.17614,-0.380442 -0.61297,-0.634112 -0.43684,-0.253619 -1.11322,-0.479081 -2.02916,-0.676386 l 0.12682,-0.908894 8.6662,0 -0.12682,0.908894 c -0.88777,0.197305 -1.59938,0.415721 -2.13484,0.655249 -0.53549,0.239579 -0.82436,0.457995 -0.86662,0.655249 l -1.86007,13.633409 c -0.0845,0.831402 -0.12683,1.627564 -0.12682,2.388489 -1e-5,0.986404 0.11977,1.881206 0.35933,2.684408 0.23955,0.803213 0.59183,1.49369 1.05685,2.071432 0.4791,0.57775 1.07094,1.028674 1.77552,1.352773 0.70456,0.310012 1.51481,0.465017 2.43076,0.465015 0.91593,2e-6 1.76141,-0.22546 2.53645,-0.676386 0.77501,-0.450921 1.45139,-1.049804 2.02916,-1.796651 0.59182,-0.746838 1.07797,-1.606411 1.45846,-2.578722 0.39453,-0.972297 0.66932,-1.986876 0.82434,-3.043738 l 1.94461,-14.500029 c 0.0422,-0.169072 -0.14093,-0.380442 -0.54956,-0.634112 -0.39458,-0.253619 -1.04983,-0.479081 -1.96575,-0.676386 l 0.12682,-0.908894 7.9264,0 -0.12682,0.908894"
       style="font-size:43.28871536px;font-style:italic;font-variant:normal;font-stretch:normal;font-family:Gentium;-inkscape-font-specification:Gentium Italic"
       id="path3012" />
  </g>
</svg>
